<?xml version="1.0" encoding="UTF-8" standalone="no"?><!DOCTYPE svg PUBLIC "-//W3C//DTD SVG 1.1//EN" "http://www.w3.org/Graphics/SVG/1.1/DTD/svg11.dtd"><!-- Generated by graphviz version 2.40.1 (20161225.0304)
 --><!-- Title: G Pages: 1 --><svg xmlns="http://www.w3.org/2000/svg" xmlns:xlink="http://www.w3.org/1999/xlink" width="2262pt" height="101pt" viewBox="0.00 0.00 2262.44 101.00">
<g id="graph0" class="graph" transform="scale(1 1) rotate(0) translate(4 97)">
<title>G</title>
<polygon fill="#ffffff" stroke="transparent" points="-4,4 -4,-97 2258.4357,-97 2258.4357,4 -4,4"/>
<g id="clust1" class="cluster">
<title>cluster_conv</title>
<polygon fill="none" stroke="#d3d3d3" stroke-dasharray="5,2" points="120.237,-8 120.237,-85 386.8238,-85 386.8238,-8 120.237,-8"/>
<text text-anchor="middle" x="254.0025" y="-68.4" font-family="Times,serif" font-size="14.00" fill="#000000">Conv2d layers: repeated for len(knum) times</text>
</g>
<g id="clust2" class="cluster">
<title>cluster_dense</title>
<polygon fill="none" stroke="#d3d3d3" stroke-dasharray="5,2" points="405.8238,-8 405.8238,-85 716.6739,-85 716.6739,-8 405.8238,-8"/>
<text text-anchor="middle" x="561.5357" y="-68.4" font-family="Times,serif" font-size="14.00" fill="#000000">Encoder Dense layers: repeated for len(Dnum) times</text>
</g>
<g id="clust3" class="cluster">
<title>cluster_densein</title>
<polygon fill="none" stroke="#d3d3d3" stroke-dasharray="5,2" points="1070.8151,-8 1070.8151,-60 1325.6653,-60 1325.6653,-8 1070.8151,-8"/>
</g>
<g id="clust4" class="cluster">
<title>cluster_denset</title>
<polygon fill="none" stroke="#d3d3d3" stroke-dasharray="5,2" points="1344.6653,-8 1344.6653,-85 1653.5155,-85 1653.5155,-8 1344.6653,-8"/>
<text text-anchor="middle" x="1499.2082" y="-68.4" font-family="Times,serif" font-size="14.00" fill="#000000">Decoder dense layers: repeated for len(Dnum) times</text>
</g>
<g id="clust5" class="cluster">
<title>cluster_convt</title>
<polygon fill="none" stroke="#d3d3d3" stroke-dasharray="5,2" points="1672.5155,-8 1672.5155,-85 2040.0641,-85 2040.0641,-8 1672.5155,-8"/>
<text text-anchor="middle" x="1838.5468" y="-68.4" font-family="Times,serif" font-size="14.00" fill="#000000">Conv2dTransposed layers: repeated for len(knum) times</text>
</g>
<!-- GRF -->
<g id="node1" class="node">
<title>GRF</title>
<path fill="none" stroke="#000000" d="M80.3558,-52C80.3558,-52 11.8812,-52 11.8812,-52 5.8812,-52 -.1188,-46 -.1188,-40 -.1188,-40 -.1188,-28 -.1188,-28 -.1188,-22 5.8812,-16 11.8812,-16 11.8812,-16 80.3558,-16 80.3558,-16 86.3558,-16 92.3558,-22 92.3558,-28 92.3558,-28 92.3558,-40 92.3558,-40 92.3558,-46 86.3558,-52 80.3558,-52"/>
<text text-anchor="start" x="8" y="-30.8" font-family="Helvetica,sans-Serif" font-size="14.00" fill="#000000">        </text>
<text text-anchor="start" x="39.1248" y="-30.8" font-family="Helvetica,sans-Serif" font-size="14.00" fill="#000000">GRF</text>
<text text-anchor="start" x="68.6746" y="-30.8" font-family="Helvetica,sans-Serif" font-size="14.00" fill="#000000">    </text>
</g>
<!-- conv -->
<g id="node5" class="node">
<title>conv</title>
<ellipse fill="none" stroke="#000000" cx="253.0304" cy="-34" rx="124.5871" ry="18"/>
<text text-anchor="middle" x="253.0304" y="-29.8" font-family="Helvetica,sans-Serif" font-size="14.00" fill="#000000">Conv2d-&gt;Dropout-&gt;Tanh()</text>
</g>
<!-- GRF&#45;&gt;conv -->
<g id="edge1" class="edge">
<title>GRF-&gt;conv</title>
<path fill="none" stroke="#000000" d="M92.296,-34C100.2574,-34 108.8797,-34 117.8545,-34"/>
<polygon fill="#000000" stroke="#000000" points="118.1208,-37.5001 128.1207,-34 118.1207,-30.5001 118.1208,-37.5001"/>
</g>
<!-- z -->
<g id="node2" class="node">
<title>z</title>
<ellipse fill="none" stroke="#000000" cx="939.4717" cy="-34" rx="103.187" ry="18"/>
<text text-anchor="start" x="872.5615" y="-30.8" font-family="Helvetica,sans-Serif" font-size="14.00" fill="#000000">       </text>
<text text-anchor="start" x="899.7957" y="-30.8" font-family="Helvetica,sans-Serif" font-size="14.00" fill="#000000">latent vector:</text>
<text text-anchor="start" x="979.9289" y="-30.8" font-family="Helvetica,sans-Serif" font-size="14.00" fill="#000000"> </text>
<text text-anchor="start" x="983.8195" y="-30.8" font-family="Helvetica,sans-Serif" font-size="14.00" fill="#ff0000">z</text>
<text text-anchor="start" x="990.8195" y="-30.8" font-family="Helvetica,sans-Serif" font-size="14.00" fill="#000000">    </text>
</g>
<!-- dense2 -->
<g id="node7" class="node">
<title>dense2</title>
<ellipse fill="none" stroke="#000000" cx="1198.2402" cy="-34" rx="119.3502" ry="18"/>
<text text-anchor="middle" x="1198.2402" y="-29.8" font-family="Helvetica,sans-Serif" font-size="14.00" fill="#000000">Dense-&gt;Dropout-&gt;Tanh()</text>
</g>
<!-- z&#45;&gt;dense2 -->
<g id="edge5" class="edge">
<title>z-&gt;dense2</title>
<path fill="none" stroke="#000000" d="M1042.8595,-34C1051.2576,-34 1059.8082,-34 1068.3616,-34"/>
<polygon fill="#000000" stroke="#000000" points="1068.395,-37.5001 1078.395,-34 1068.3949,-30.5001 1068.395,-37.5001"/>
</g>
<!-- GRFre -->
<g id="node3" class="node">
<title>GRFre</title>
<path fill="none" stroke="#000000" d="M2242.6219,-52C2242.6219,-52 2079.8779,-52 2079.8779,-52 2073.8779,-52 2067.8779,-46 2067.8779,-40 2067.8779,-40 2067.8779,-28 2067.8779,-28 2067.8779,-22 2073.8779,-16 2079.8779,-16 2079.8779,-16 2242.6219,-16 2242.6219,-16 2248.6219,-16 2254.6219,-22 2254.6219,-28 2254.6219,-28 2254.6219,-40 2254.6219,-40 2254.6219,-46 2248.6219,-52 2242.6219,-52"/>
<text text-anchor="start" x="2076.0641" y="-30.8" font-family="Helvetica,sans-Serif" font-size="14.00" fill="#000000">        </text>
<text text-anchor="start" x="2107.1889" y="-30.8" font-family="Helvetica,sans-Serif" font-size="14.00" fill="#000000">Reconstructed GRF</text>
<text text-anchor="start" x="2230.8733" y="-30.8" font-family="Helvetica,sans-Serif" font-size="14.00" fill="#000000">    </text>
</g>
<!-- outputD -->
<g id="node4" class="node">
<title>outputD</title>
<path fill="none" stroke="#000000" d="M788.3574,-52C788.3574,-52 755.4449,-52 755.4449,-52 749.4449,-52 743.4449,-46 743.4449,-40 743.4449,-40 743.4449,-28 743.4449,-28 743.4449,-22 749.4449,-16 755.4449,-16 755.4449,-16 788.3574,-16 788.3574,-16 794.3574,-16 800.3574,-22 800.3574,-28 800.3574,-28 800.3574,-40 800.3574,-40 800.3574,-46 794.3574,-52 788.3574,-52"/>
<text text-anchor="middle" x="771.9011" y="-29.8" font-family="Helvetica,sans-Serif" font-size="14.00" fill="#000000">Dense</text>
</g>
<!-- outputD&#45;&gt;z -->
<g id="edge4" class="edge">
<title>outputD-&gt;z</title>
<path fill="none" stroke="#000000" d="M800.3272,-34C807.8703,-34 816.4968,-34 825.6773,-34"/>
<polygon fill="#000000" stroke="#000000" points="825.8314,-37.5001 835.8313,-34 825.8313,-30.5001 825.8314,-37.5001"/>
</g>
<!-- dense1 -->
<g id="node6" class="node">
<title>dense1</title>
<ellipse fill="none" stroke="#000000" cx="561.2489" cy="-34" rx="119.3502" ry="18"/>
<text text-anchor="middle" x="561.2489" y="-29.8" font-family="Helvetica,sans-Serif" font-size="14.00" fill="#000000">Dense-&gt;Dropout-&gt;Tanh()</text>
</g>
<!-- conv&#45;&gt;dense1 -->
<g id="edge2" class="edge">
<title>conv-&gt;dense1</title>
<path fill="none" stroke="#000000" d="M377.9503,-34C395.5264,-34 413.6283,-34 431.2958,-34"/>
<polygon fill="#000000" stroke="#000000" points="431.6407,-37.5001 441.6407,-34 431.6406,-30.5001 431.6407,-37.5001"/>
</g>
<!-- dense1&#45;&gt;outputD -->
<g id="edge3" class="edge">
<title>dense1-&gt;outputD</title>
<path fill="none" stroke="#000000" d="M680.7312,-34C699.7444,-34 718.1308,-34 733.3512,-34"/>
<polygon fill="#000000" stroke="#000000" points="733.3513,-37.5001 743.3513,-34 733.3512,-30.5001 733.3513,-37.5001"/>
</g>
<!-- dense3 -->
<g id="node8" class="node">
<title>dense3</title>
<ellipse fill="none" stroke="#000000" cx="1499.0904" cy="-34" rx="119.3502" ry="18"/>
<text text-anchor="middle" x="1499.0904" y="-29.8" font-family="Helvetica,sans-Serif" font-size="14.00" fill="#000000">Dense-&gt;Dropout-&gt;Tanh()</text>
</g>
<!-- dense2&#45;&gt;dense3 -->
<g id="edge6" class="edge">
<title>dense2-&gt;dense3</title>
<path fill="none" stroke="#000000" d="M1318.0086,-34C1334.6995,-34 1351.9163,-34 1368.7891,-34"/>
<polygon fill="#000000" stroke="#000000" points="1369.2426,-37.5001 1379.2426,-34 1369.2425,-30.5001 1369.2426,-37.5001"/>
</g>
<!-- conv2 -->
<g id="node9" class="node">
<title>conv2</title>
<ellipse fill="none" stroke="#000000" cx="1856.2898" cy="-34" rx="175.5489" ry="18"/>
<text text-anchor="middle" x="1856.2898" y="-29.8" font-family="Helvetica,sans-Serif" font-size="14.00" fill="#000000">Conv2dTransposed-&gt;Dropout-&gt;Tanh()</text>
</g>
<!-- dense3&#45;&gt;conv2 -->
<g id="edge7" class="edge">
<title>dense3-&gt;conv2</title>
<path fill="none" stroke="#000000" d="M1618.5292,-34C1635.1441,-34 1652.529,-34 1670.0122,-34"/>
<polygon fill="#000000" stroke="#000000" points="1670.3124,-37.5001 1680.3123,-34 1670.3123,-30.5001 1670.3124,-37.5001"/>
</g>
<!-- conv2&#45;&gt;GRFre -->
<g id="edge8" class="edge">
<title>conv2-&gt;GRFre</title>
<path fill="none" stroke="#000000" d="M2032.3614,-34C2040.999,-34 2049.5332,-34 2057.8493,-34"/>
<polygon fill="#000000" stroke="#000000" points="2057.8774,-37.5001 2067.8774,-34 2057.8773,-30.5001 2057.8774,-37.5001"/>
</g>
</g>
</svg>